<svg width="20" height="20" viewBox="0 0 20 20" fill="none" xmlns="http://www.w3.org/2000/svg">
<path fill-rule="evenodd" clip-rule="evenodd" d="M6.28624 16.6265C6.88124 16.6265 7.36541 17.1098 7.36541 17.7048C7.36541 18.2998 6.88124 18.784 6.28624 18.784C5.69124 18.784 5.20791 18.2998 5.20791 17.7048C5.20791 17.1098 5.69124 16.6265 6.28624 16.6265ZM15.6865 16.6265C16.2823 16.6265 16.7665 17.1098 16.7665 17.7048C16.7665 18.2998 16.2823 18.784 15.6865 18.784C15.0915 18.784 14.6082 18.2998 14.6082 17.7048C14.6082 17.1098 15.0915 16.6265 15.6865 16.6265ZM2.72308 2.50784L4.45641 2.80784C4.73558 2.85701 4.94808 3.08868 4.97224 3.37201L5.16808 5.70618L5.89628 5.70649C6.01511 5.70654 6.13269 5.7066 6.24901 5.70665L7.58593 5.70729C7.6925 5.70734 7.79787 5.70739 7.90207 5.70745L9.37823 5.70826C9.47097 5.70831 9.56259 5.70836 9.65312 5.70842L10.6876 5.70908C10.7695 5.70913 10.8504 5.70919 10.9303 5.70924L11.8401 5.70992C11.912 5.70997 11.9828 5.71003 12.0527 5.71008L12.846 5.71077C12.9084 5.71082 12.9699 5.71088 13.0305 5.71094L13.5519 5.71146C13.6072 5.71151 13.6617 5.71157 13.7153 5.71163L14.3191 5.71233C14.3662 5.71239 14.4125 5.71245 14.458 5.71251L14.9678 5.71322C15.0073 5.71328 15.0461 5.71334 15.0842 5.7134L15.4082 5.71394C15.4422 5.714 15.4755 5.71406 15.5081 5.71412L15.869 5.71485C15.8966 5.71491 15.9236 5.71498 15.95 5.71504L16.1721 5.71559C16.1951 5.71565 16.2176 5.71572 16.2395 5.71578L16.4776 5.71653C16.4955 5.71659 16.5128 5.71666 16.5297 5.71672L16.6696 5.71729C16.6838 5.71735 16.6976 5.71742 16.7109 5.71748L16.8524 5.71825C16.8626 5.71832 16.8726 5.71838 16.8821 5.71844L16.9592 5.71903C16.9668 5.7191 16.9741 5.71916 16.9811 5.71923L17.0366 5.71982C17.042 5.71988 17.0471 5.71995 17.052 5.72002L17.0897 5.72061C17.0933 5.72068 17.0966 5.72075 17.0998 5.72081L17.1237 5.72142C17.1259 5.72149 17.1279 5.72155 17.1298 5.72162L17.1471 5.72244C17.1482 5.72251 17.1492 5.72257 17.1501 5.72264C17.1582 5.7234 17.1594 5.72354 17.1606 5.72368C17.6247 5.79118 18.0331 6.03368 18.3114 6.40701C18.5897 6.77951 18.7064 7.23868 18.6397 7.69868L17.8489 13.1637C17.6997 14.2037 16.7964 14.9878 15.7464 14.9878H6.64558C5.54808 14.9878 4.61891 14.1312 4.52974 13.0353L3.76641 3.95701L2.51058 3.74034C2.16974 3.68034 1.94224 3.35784 2.00058 3.01701C2.06058 2.67618 2.38974 2.45451 2.72308 2.50784ZM5.7291 6.95646L5.27308 6.95618L5.77558 12.9328C5.81224 13.3928 6.18808 13.7378 6.64724 13.7378H15.7447C16.1789 13.7378 16.5497 13.4145 16.6114 12.9853L17.4031 7.51951C17.4214 7.38951 17.3889 7.25951 17.3097 7.15451C17.2314 7.04868 17.1164 6.98035 16.9864 6.96201C16.9804 6.96224 16.966 6.96245 16.9436 6.96264L16.853 6.96316C16.834 6.96324 16.8132 6.96331 16.7905 6.96338L16.3184 6.9641C16.2786 6.96413 16.2372 6.96415 16.1942 6.96417L15.0842 6.96413C15.0223 6.9641 14.9592 6.96408 14.895 6.96405L13.6282 6.96328C13.5523 6.96322 13.4756 6.96317 13.3981 6.96311L12.6813 6.96253C12.5997 6.96246 12.5174 6.96239 12.4346 6.96232L11.6754 6.96166C11.5896 6.96158 11.5035 6.9615 11.4169 6.96142L10.894 6.96094C10.8062 6.96086 10.7182 6.96078 10.63 6.9607L9.83191 6.95995C9.74292 6.95987 9.65388 6.95978 9.56484 6.9597L9.03096 6.9592C8.94212 6.95912 8.85337 6.95904 8.76478 6.95896L8.23544 6.95848C8.14765 6.9584 8.06012 6.95832 7.9729 6.95825L7.19747 6.95758C7.11254 6.95751 7.02806 6.95744 6.94409 6.95737L5.96415 6.95662C5.88507 6.95657 5.8067 6.95651 5.7291 6.95646ZM14.4063 8.78643C14.7513 8.78643 15.0313 9.06643 15.0313 9.41143C15.0313 9.75643 14.7513 10.0364 14.4063 10.0364H12.0963C11.7505 10.0364 11.4713 9.75643 11.4713 9.41143C11.4713 9.06643 11.7505 8.78643 12.0963 8.78643H14.4063Z" fill="#2F3137"/>
</svg>
